<svg xmlns="http://www.w3.org/2000/svg" data-name="Layer 1" viewBox="0 0 100 125" x="0px" y="0px"><title>Help</title><path d="M50,0a50,50,0,1,0,50,50A50,50,0,0,0,50,0Zm-.84,76.5a5.31,5.31,0,1,1,5.24-5.33A5.35,5.35,0,0,1,49.16,76.5ZM64.05,48.32a25.19,25.19,0,0,1-2.91,1.86c-1,.6-2.14,1.07-3.18,1.66-3.61,2-4.36,3-5.43,7H45.67c-.17-4.59,0-9,4-12.13a35,35,0,0,1,3.87-2.43c.85-.51,1.75-.92,2.61-1.41A4.56,4.56,0,0,0,58.53,38,4.43,4.43,0,0,0,55,34.08a15,15,0,0,0-12,1.23,64,64,0,0,0-5.38,3.94c-1.95-2.32-4-4.78-6.17-7.32a25.12,25.12,0,0,1,7.32-5.62,25.87,25.87,0,0,1,21-1.09C70.64,29.12,70.53,43.36,64.05,48.32Z"/><text x="0" y="115" fill="#000000" font-size="5px" font-weight="bold" font-family="'Helvetica Neue', Helvetica, Arial-Unicode, Arial, Sans-serif">Created by Rainbow Designs</text><text x="0" y="120" fill="#000000" font-size="5px" font-weight="bold" font-family="'Helvetica Neue', Helvetica, Arial-Unicode, Arial, Sans-serif">from the Noun Project</text></svg>