<?xml version="1.0" encoding="utf-8"?>
<svg fill="currentColor" preserveAspectRatio="xMidYMid meet" version="1.2" viewBox="0 0 110 117" xmlns="http://www.w3.org/2000/svg">
<title>dataReliability</title>
<style>
		tspan { white-space:pre } 
		.s0 { fill: #000000 } 
		.t1 { font-size: 5px;fill: #000000;font-family: "Arbeit  Regular" } 
	</style>
<path class="s0" d="m91.6 23.3c0-3-3-5.6-8.3-7.5-5-1.7-11.5-2.7-18.4-2.7-6.9 0-13.4 1-18.4 2.7-5.3 1.9-8.3 4.5-8.3 7.5v24.5c-0.9 0.1-1.7 0.6-2.3 1.2l-3.2 3.3h-4.7c-1.2-0.1-2.4 0.5-3.4 1.5-1 1-1.6 2.2-1.5 3.4v4.7l-3.3 3.2c-0.9 0.9-1.4 2.1-1.4 3.5 0 1.5 0.5 2.7 1.4 3.6l3.3 3.2v4.7c-0.1 1.2 0.5 2.4 1.5 3.4 0.9 0.9 1.9 1.4 2.9 1.5l-4.4 17.4q0 0 0 0 0 0 0 0.1 0 0 0 0 0 0.1-0.1 0.1 0 0 0 0.1 0 0 0 0.1 0 0 0.1 0 0 0.1 0 0.1 0 0 0 0.1 0 0 0 0 0 0 0 0.1 0 0 0 0 0 0.1 0 0.1 0.1 0 0.1 0 0 0.1 0 0.1 0 0 0 0 0 0.1 0 0.1 0.1 0 0.1 0 0 0 0 0 0 0.1 0 0.1 0.1 0 0.1 0 0 0 0 0.1 0 0 0.1 0 0 0 0 0 0 0.1 0.1 0.1 0 0 0 0 0 0 0.1 0 0 0.1 0 0.1 0 0 0.1 0 0 0 0 0 0 0 0.1 0 0 0.1 0 0.1 0 0 0.1 0 0 0 0 0 0 0 0.1 0 0 0 0 0 0.1 0 0.2 0 0.1 0 0.1 0 0.1 0 0.1 0 0.1 0 0.1-0.1 0.1 0 0.1 0 0.1 0 0.1 0 0 0 0 0 0.1-0.1 0.1-0.1l6.4-4.2 3.5 6.7q0 0 0 0 0.1 0.1 0.1 0.2 0 0 0 0 0.1 0 0.1 0.1 0 0 0.1 0 0 0.1 0 0.1 0 0 0.1 0 0 0.1 0.1 0.1 0 0 0 0 0.1 0 0.1 0.1 0 0 0.1 0 0 0 0.1 0 0 0 0 0 0 0 0 0 0.1 0.1 0.1 0.1 0 0 0.1 0 0 0 0.1 0 0.1 0 0.2 0 0 0 0 0 0.1-0.1 0.2-0.1 0 0 0 0 0.1 0 0.2-0.1 0 0 0 0 0 0 0 0 0.1 0 0.1-0.1 0.1 0 0.1 0 0 0 0.1-0.1 0 0 0 0 0.1-0.1 0.1-0.2 0 0 0 0 0.1 0 0.1-0.1 0 0 0-0.1 0.1 0 0.1-0.1 0 0 0 0l2.3-9.3 2.4 9.3q0 0 0 0 0 0.1 0.1 0.1 0 0.1 0 0.1 0 0.1 0.1 0.1 0 0 0 0 0 0.1 0.1 0.2 0 0 0 0 0.1 0.1 0.1 0.1 0 0 0.1 0 0 0.1 0.1 0.1 0 0 0 0 0 0 0 0 0.1 0.1 0.2 0.1 0 0 0 0 0.1 0 0.1 0.1 0.1 0 0.1 0 0.1 0 0.2 0 0.1 0 0.1 0 0.1 0 0.1 0 0-0.1 0.1-0.1 0 0 0 0 0 0 0 0 0.1 0 0.1 0 0.1 0 0.1 0 0-0.1 0.1-0.1 0 0 0 0 0.1 0 0.1-0.1 0.1 0 0.1 0 0 0 0.1-0.1 0 0 0 0 0-0.1 0.1-0.1 0 0 0 0 0-0.1 0.1-0.2 0 0 0 0l3.5-6.7 6.4 4.2q0 0 0.1 0 0 0.1 0 0.1 0.1 0 0.1 0 0.1 0 0.1 0 0.1 0.1 0.1 0.1 0.1 0 0.1 0 0.1 0 0.1 0h0.1q0 0 0.1 0 0 0 0 0 0.1 0 0.1 0 0 0 0 0 0.1 0 0.1 0 0-0.1 0-0.1 0.1 0 0.1 0 0 0 0 0 0.1 0 0.1 0 0 0 0.1-0.1 0 0 0 0 0 0 0.1 0 0 0 0-0.1 0 0 0 0 0.1 0 0.1 0 0-0.1 0-0.1 0 0 0.1 0 0 0 0-0.1 0 0 0 0 0 0 0.1 0 0 0 0-0.1 0 0 0 0 0 0 0-0.1 0 0 0.1 0 0 0 0-0.1 0 0 0 0 0-0.1 0-0.1 0 0 0 0 0-0.1 0-0.1 0 0 0-0.1 0.1 0 0.1 0 0-0.1 0-0.1 0-0.1 0-0.1 0 0-0.1-0.1 0 0 0 0 0-0.1 0-0.1 0 0 0 0l-4.4-17.4c1-0.1 2-0.6 2.9-1.5q0.9-0.9 1.3-2 4.5 0.6 9.3 0.6c6.9 0 13.5-1 18.4-2.7 5.4-1.9 8.3-4.5 8.3-7.4v-48.7q0 0 0 0zm-2.5 32.4c0 1.8-2.5 3.7-6.6 5.2-4.7 1.6-10.9 2.5-17.6 2.5-2.7 0-5.4-0.1-8-0.4l-1.1-1.1 0.1-4.7c0-1.2-0.6-2.4-1.6-3.4-1-1-2.2-1.6-3.4-1.6l-4.7 0.1-3.2-3.3c-0.6-0.6-1.4-1.1-2.3-1.2v-3.9q2 1.7 5.8 3.1c4.9 1.7 11.5 2.6 18.4 2.6 6.9 0 13.5-0.9 18.4-2.6q3.8-1.4 5.8-3.1c0 0 0 11.8 0 11.8zm0-16.2c0 1.8-2.5 3.7-6.6 5.2-4.7 1.6-10.9 2.5-17.6 2.5-6.7 0-12.9-0.9-17.6-2.5-4.1-1.5-6.6-3.4-6.6-5.2v-11.9c1.4 1.2 3.3 2.2 5.8 3.1 5 1.8 11.5 2.7 18.4 2.7 6.9 0 13.4-0.9 18.4-2.7 2.5-0.8 4.4-1.9 5.8-3.1 0 0 0 11.9 0 11.9zm-41.8-21.4c4.7-1.6 11-2.5 17.6-2.5 6.6 0 12.9 0.9 17.6 2.5 4.1 1.5 6.6 3.4 6.6 5.2 0 1.7-2.5 3.7-6.6 5.1-4.7 1.7-11 2.6-17.6 2.6-6.6 0-12.9-0.9-17.6-2.6-4.1-1.4-6.6-3.4-6.6-5.1 0-1.8 2.5-3.7 6.6-5.2zm-11.8 84.2l-2.7-5.2c-0.1-0.3-0.4-0.5-0.8-0.6-0.3-0.1-0.6 0-0.9 0.2l-4.9 3.2 3.8-14.9h2.7l3.2 3.3q0.7 0.7 1.7 1l0.6 2.5zm11.3-5.8c-0.3 0.1-0.6 0.3-0.7 0.6l-2.7 5.2-2.8-10.8q0 0 0 0l-0.5-1.9c1.2-0.1 2.1-0.6 2.8-1.3l3.3-3.3h2.7l3.8 14.9-4.9-3.2c-0.3-0.2-0.6-0.3-1-0.2zm5.8-14.7c-0.6 0.5-1.2 0.8-1.7 0.8l-5.2-0.1c-0.3 0-0.7 0.1-0.9 0.4l-3.6 3.7c-0.4 0.4-1 0.6-1.8 0.6-0.7 0-1.4-0.2-1.7-0.6l-3.6-3.7c-0.3-0.3-0.6-0.4-0.9-0.4l-5.2 0.1c-0.6 0-1.2-0.3-1.7-0.8-0.5-0.5-0.8-1.1-0.8-1.7l0.1-5.2c0-0.3-0.2-0.6-0.4-0.9l-3.8-3.6c-0.3-0.4-0.6-1-0.6-1.7 0-0.8 0.3-1.4 0.6-1.8l3.8-3.6c0.2-0.3 0.4-0.6 0.4-0.9l-0.1-5.2c0-0.5 0.3-1.2 0.8-1.7 0.5-0.5 1.1-0.8 1.6-0.8l5.3 0.1c0.3 0 0.6-0.1 0.8-0.4l3.7-3.7c0.3-0.4 1-0.6 1.7-0.6 0.8 0 1.4 0.2 1.8 0.6l3.6 3.7c0.2 0.3 0.6 0.4 0.9 0.4l5.2-0.1c0.5 0 1.1 0.3 1.7 0.8 0.5 0.5 0.8 1.1 0.8 1.7l-0.1 5.1v0.1c0 0.3 0.1 0.6 0.4 0.9l3.7 3.6c0.4 0.4 0.6 1 0.6 1.7 0 0.8-0.2 1.4-0.6 1.8l-3.7 3.6c-0.3 0.3-0.4 0.6-0.4 0.9l0.1 5.2c0 0.5-0.3 1.2-0.8 1.7zm29.9-4.7c-4.7 1.7-11 2.6-17.6 2.6q-4.8 0-9.1-0.6l-0.1-3.7 3.4-3.2c0.9-0.9 1.3-2.1 1.3-3.6 0-1.1-0.3-2.1-0.8-2.9q2.6 0.2 5.3 0.2c6.9 0 13.4-1 18.4-2.7q3.7-1.3 5.8-3.1v11.9c0 1.7-2.5 3.7-6.6 5.1zm-9.1-37.3c0 0.7-0.5 1.3-1.1 1.3q-1.6 0.2-3.3 0.3 0 0-0.1 0c-0.6 0-1.1-0.5-1.2-1.1 0-0.7 0.5-1.3 1.2-1.3q1.6-0.1 3.1-0.3c0.7 0 1.3 0.4 1.4 1.1zm5-2.1c2.4-0.6 4.5-1.2 6.2-2 0.6-0.3 1.3 0 1.6 0.6 0.3 0.6 0 1.3-0.6 1.6-1.8 0.9-4.1 1.6-6.6 2.2q-0.2 0-0.3 0c-0.6 0-1.1-0.4-1.2-1-0.1-0.6 0.3-1.3 0.9-1.4zm0 16.2c2.4-0.5 4.5-1.2 6.2-2 0.6-0.3 1.3 0 1.6 0.6 0.3 0.6 0 1.3-0.6 1.6-1.8 0.9-4.1 1.6-6.6 2.2q-0.2 0-0.3 0c-0.6 0-1.1-0.4-1.2-0.9-0.1-0.7 0.3-1.3 0.9-1.5zm-5 2.1c0 0.7-0.5 1.3-1.1 1.4q-1.6 0.1-3.3 0.2 0 0-0.1 0c-0.6 0-1.1-0.5-1.2-1.1 0-0.7 0.5-1.3 1.2-1.3q1.6-0.1 3.1-0.2c0.7-0.1 1.3 0.4 1.4 1zm12.8 12.7c0.3 0.6 0 1.4-0.6 1.7-1.8 0.8-4.1 1.5-6.6 2.1q-0.2 0.1-0.3 0.1c-0.6 0-1.1-0.4-1.2-1-0.1-0.7 0.3-1.3 0.9-1.5 2.4-0.5 4.5-1.2 6.2-2 0.6-0.2 1.3 0 1.6 0.6zm-12.8 3.6c0 0.6-0.5 1.2-1.1 1.3q-1.6 0.2-3.3 0.3 0 0-0.1 0c-0.6 0-1.1-0.5-1.2-1.2 0-0.6 0.5-1.2 1.2-1.3q1.6-0.1 3.1-0.2c0.7-0.1 1.3 0.4 1.4 1.1zm-34-17.8c-7.8 0-14.1 6.3-14.1 14.1 0 7.9 6.3 14.2 14.1 14.2 7.8 0 14.2-6.4 14.2-14.2 0-7.8-6.4-14.1-14.2-14.1zm0 25.9c-6.4 0-11.7-5.3-11.7-11.8 0-6.4 5.3-11.7 11.7-11.7 6.5 0 11.7 5.3 11.7 11.7 0 6.5-5.2 11.8-11.7 11.8zm6-16.1l-6.4 10c-0.2 0.4-0.6 0.6-0.9 0.6q-0.1 0-0.2 0c-0.3 0-0.6-0.1-0.8-0.4l-3.6-3.7c-0.4-0.5-0.4-1.3 0.1-1.7 0.5-0.5 1.3-0.5 1.7 0l2.5 2.6 5.6-8.8c0.4-0.5 1.1-0.7 1.7-0.3 0.5 0.3 0.7 1.1 0.3 1.7z"/>
<text id="Created by Dahlia nur aini" style="transform: matrix(1,0,0,1,5,127.5)">
<tspan class="t1" x="0" y="0">Created by Dahlia nur aini
</tspan>
</text>
<text id="from Noun Project" style="transform: matrix(1,0,0,1,5,132.5)">
<tspan class="t1" x="0" y="0">from Noun Project
</tspan>
</text>
</svg>