<?xml version="1.0" encoding="utf-8"?>
<svg fill="currentColor" preserveAspectRatio="xMidYMid meet" version="1.2" viewBox="0 0 110 113" xmlns="http://www.w3.org/2000/svg">
<title>humanInteraction</title>
<style>
		tspan { white-space:pre } 
		.s0 { fill: #000000 } 
		.t1 { font-size: 5px;fill: #000000;font-family: "Arbeit  Regular" } 
	</style>
<g>
<path class="s0" d="m94.9 49l-22.6 0.6-3.5-3.5c-0.9-0.9-2-1.3-3.3-1.3h-19.3q-1 0-1.9 0.6-2.1 1.6-4.3 3.3h-10c-0.4 0-0.7 0.3-0.7 0.6 0 0.4 0.3 0.7 0.7 0.7h8.3c-1.4 1.1-3.4 2.6-4.6 3.5-0.5 0.3-1.2 0.8-1.2 1.6 0.1 0.7 2.1 4 3.5 5.2q0.8 0.7 1.5 0.6c1.3-0.1 6.4-4.9 8.1-6.5 1.5 1.1 3.2 0.8 4.2-0.3 4.8 2 5.6 2.1 6.7 3 6.1 4.7 11.5 10 16.8 16.4q0 0.1 0.1 0.2 0.8 0.9 1.6 1.9c0.8 1.1 1.3 1.3 1.3 2.3 0 1.2-1 2.2-2.1 2.2-0.6 0-1.1-0.2-1.5-0.7l-12.7-12.6c-0.2-0.2-0.6-0.2-0.9 0-0.3 0.3-0.3 0.7 0 0.9l1.2 1.2c2.4 2.4 10 10 9.5 9.5 0.8 0.8 0.8 2.2 0 3-0.8 0.8-2.2 0.8-3 0-4.6-4.6-9.8-9.7-9.5-9.5-0.2-0.2-0.7-0.2-0.9 0-0.3 0.3-0.3 0.7 0 1l8.5 8.5c0.7 0.8 0.7 2.1-0.1 2.8-0.8 0.8-2.2 0.9-3 0-5.1-5-7.4-7.3-9.9-9.8-0.2-0.2-0.6-0.2-0.9 0-0.3 0.3-0.3 0.7 0 0.9l7.9 7.9c0.8 0.8 0.8 2.1-0.1 3-0.8 0.8-2.1 0.8-2.9 0l-3.1-3 0.6-0.7c0.7-0.9 0.6-2.1-0.3-2.9l-3.1-2.5c-0.4-0.3-0.8-0.5-1.3-0.4 0.2-0.8 0-1.7-0.6-2.3l-3.1-2.5c-0.4-0.3-0.8-0.4-1.2-0.4l1-1.3c0.7-0.8 0.6-2.1-0.3-2.8l-3.1-2.5c-0.9-0.8-2.2-0.6-2.8 0.2l-1.1 1.3c-0.3-1.1-0.8-1.1-3.7-3.5-0.8-0.8-2.1-0.6-2.8 0.2l-4.9 5.9-6.2 0.2v-19.2h5.7c0.3 0 0.6-0.3 0.6-0.7 0-0.3-0.3-0.6-0.6-0.6h-5.7v-1.6c0-0.8-0.7-1.5-1.5-1.5h-4.3c-0.8 0-1.5 0.7-1.5 1.5v25c0 0.8 0.7 1.5 1.5 1.5h4.3c0.8 0 1.5-0.7 1.5-1.5v-1.6l5.1-0.1-0.3 0.4c-0.3 0.3-0.2 0.7 0.1 0.9 1.6 1.4 17.1 13.9 21.9 17.9 0.3 0.2 0.7 0.2 0.9-0.1l4.4-5.3 2.9 2.9c2 2 5.5 0.9 5.8-2.1l0.2 0.2c0.7 0.6 1.5 1 2.4 1 1.8 0 3.3-1.3 3.4-3.3 2.2 1.2 4.7-0.2 4.9-2.7l0.1 0.2c0.7 0.6 1.5 1 2.4 1h0.1c3 0 4.5-3.8 2.4-5.8l-0.6-0.8q-0.5-0.7-1.1-1.4c8.9-2.9 9.2-3.3 11-3.3h9c1.4 0 2.5-1.1 2.5-2.5v-16.1c0-1.3-1-2.5-2.5-2.5zm-68.8 22.1l5.9-7.1c0.2-0.3 0.7-0.4 1-0.1l0.8 0.7-2.6 3.4c-0.4 0.1-0.8 0.5-0.8 0.9 0 0.6 0.5 1 1 1 0.6 0 1-0.4 1-1q0-0.1-0.1-0.2l2.6-3.3 1.2 1c0.3 0.3 0.3 0.7 0.1 1l-5.9 7.2zm5.5 4.5c8.3-10 7.9-9.9 8.4-9.9q0.3-0.1 0.6 0.1l0.9 0.8-3 3.7q-0.1 0-0.2 0c-0.5 0-0.9 0.4-0.9 0.9 0 0.6 0.4 1 0.9 1 0.6 0 1-0.4 1-1 0 0 0.1 0 0.1 0l3.1-3.8 1.2 1c0.3 0.2 0.3 0.7 0.1 1l-8 9.6zm5.6 4.6l5.9-7.2c0.3-0.3 0.7-0.3 1-0.1l0.9 0.7-2.4 3.1q-0.1 0-0.1 0c-0.4 0.2-0.7 0.5-0.7 1 0 0.5 0.5 0.9 1 0.9 0.5 0 1-0.4 1-0.9q0-0.2-0.1-0.4l2.3-2.8 1.2 0.9c0.3 0.3 0.4 0.7 0.1 1l-5.9 7.2zm9.8 8l-4.2-3.4 5.4-6.5c0.2-0.4 0.7-0.4 1-0.1l0.6 0.5-2.3 3.3q-0.1 0-0.1 0c-0.6 0-1 0.4-1 1 0 0.5 0.4 0.9 1 0.9 0.5 0 0.9-0.3 0.9-0.8 0.2-0.3 2.7-3.8 2.5-3.6l1.5 1.2c0.3 0.3 0.3 0.7 0.1 1-1 1.1-5.6 6.8-5.4 6.5zm47.9-19.4c-8.7 0.1-9.6-0.3-11.6 0.4l-9.3 3.2c-5.2-6.3-10.7-11.7-16.7-16.3-1.3-1.1-2.4-1.2-6.8-3.1 0.7-2.3-1-4.2-3-4.2-2.2 0-3.9 2.4-2.7 4.6-3 2.8-6.7 6-7.4 6.2-0.4 0-1-0.7-1.6-1.5l3.3-2.7q0.1 0 0.2 0c0.5 0 1-0.4 1-0.9 0-1.2-1.8-1.4-2-0.2l-3.3 2.7c-0.6-0.8-1.1-1.6-1.2-1.9 0.1 0 11.2-8.6 11.3-8.6 1-0.7 0.4-0.3 20.4-0.4 0.9 0 1.7 0.3 2.3 0.9l3.5 3.6v3.3c0 0.4 0.3 0.7 0.7 0.7 0.4 0 0.7-0.3 0.7-0.7v-3l22.2-0.6c0.6 0 1.2 0.5 1.2 1.2v2l-9.5 0.5c-0.5 0.1-0.6-0.1-1.9-0.7 0.1-0.1 0.1-0.1 0.1-0.2 0-1.1-0.9-2.1-2.1-2.1-1.1 0-2 1-2 2.1 0 1.8 2.2 2.7 3.5 1.4 1 0.4 1.5 0.9 2.5 0.8l9.4-0.5v4.5l-11.8 0.4c-0.1-1-0.9-1.8-2-1.8-1.1 0-2 0.9-2 2 0 2 2.6 2.9 3.7 1.1l12.1-0.4v3.6c-9.4 0.4-9.6 0.1-10.4 0.6l-1.7 0.9c-1.1-1.8-3.7-0.9-3.7 1.1 0 1.1 0.9 2 2 2 1.1 0 1.9-0.8 2-1.8 2-1 2.1-1.2 2.5-1.2l9.3-0.3v2.1c0 0.7-0.5 1.2-1.2 1.2zm-47.4-15c-1 0-1.8-0.8-1.8-1.8 0-1.1 0.8-1.9 1.8-1.9 1.1 0 1.9 0.8 1.9 1.9 0 1-0.8 1.8-1.9 1.8zm35.2 0c-0.4 0-0.7-0.3-0.7-0.7 0-0.4 0.3-0.7 0.7-0.7 0.4 0 0.8 0.3 0.8 0.7 0 0.4-0.4 0.7-0.8 0.7zm-0.4 6.9c-0.4 0-0.7-0.4-0.7-0.8 0-0.4 0.3-0.7 0.7-0.7 0.4 0 0.7 0.3 0.7 0.7 0.1 0.4-0.3 0.8-0.7 0.8zm0.8 6.1c0 0.4-0.4 0.7-0.8 0.7-0.4 0-0.7-0.3-0.7-0.7 0-0.4 0.3-0.8 0.7-0.8 0.4 0 0.8 0.4 0.8 0.8z"/>
<path class="s0" d="m84.8 40.5h8.5c0.4 0 0.7-0.3 0.7-0.6 0-0.4-0.3-0.7-0.7-0.7h-8.5c-0.3 0-0.6 0.3-0.6 0.7 0 0.3 0.3 0.6 0.6 0.6z"/>
<path class="s0" d="m80.3 37.2h6.9c0.3 0 0.6-0.3 0.6-0.7 0-0.4-0.3-0.6-0.6-0.6h-6.9c-0.4 0-0.7 0.2-0.7 0.6 0 0.4 0.3 0.7 0.7 0.7z"/>
<path class="s0" d="m56.8 33.1c-0.3 0-0.6 0.3-0.6 0.6 0 0.4 0.3 0.7 0.6 0.7h11.7c0.4 0 0.7-0.3 0.7-0.7 0-0.3-0.3-0.6-0.7-0.6z"/>
<path class="s0" d="m74.5 30.9c0-0.4-0.3-0.6-0.7-0.6h-7.7c-0.4 0-0.7 0.2-0.7 0.6 0 0.4 0.3 0.7 0.7 0.7h7.7c0.4 0 0.7-0.3 0.7-0.7z"/>
</g>
<text id="Created by Vectors Market" style="transform: matrix(1,0,0,1,5,127.5)">
<tspan class="t1" x="0" y="0">Created by Vectors Market
</tspan>
</text>
<text id="from Noun Project" style="transform: matrix(1,0,0,1,5,132.5)">
<tspan class="t1" x="0" y="0">from Noun Project
</tspan>
</text>
</svg>